<svg id="Layer_1" data-name="Layer 1" xmlns="http://www.w3.org/2000/svg" viewBox="0 0 138.83 82.64"><defs><style>.cls-1{fill:#3b3f9a;}.cls-1,.cls-2,.cls-3{fill-rule:evenodd;}.cls-2{fill:#feb101;}.cls-3{fill:#fe0605;}.cls-4{font-size:10.79px;fill:#fff;font-family:HelveticaNeueLTGEO65Mt-Medium, "Helvetica Neue LT GEO 65 Mt";font-weight:500;}</style></defs><path class="cls-1" d="M69.2,36.47A12.61,12.61,0,0,1,57.82,30c-2.34-4.48-2-9.47-.69-14.27A42.13,42.13,0,0,1,65.54,0a50,50,0,0,0-11,10.4,38.44,38.44,0,0,0-6.44,12c-1.33,4.38-2,9.17.61,13.35a8.15,8.15,0,0,0,3.06,2.85,12.92,12.92,0,0,0,8.53,1.12,28,28,0,0,0,8.91-3.28Z"/><path class="cls-1" d="M69.2,36.47A12.61,12.61,0,0,1,57.82,30a16.85,16.85,0,0,1-1.58-9.88,33.6,33.6,0,0,0-6.67-1.63,32.39,32.39,0,0,0-1.48,3.9c-1.33,4.38-2,9.17.61,13.35a8.15,8.15,0,0,0,3.06,2.85,12.92,12.92,0,0,0,8.53,1.12,28,28,0,0,0,8.91-3.28Z"/><path class="cls-2" d="M58.07,21.07a13,13,0,0,1,6.32-5.68,12.46,12.46,0,0,1,8.74-.13c9.42,3.32,15.3,12.11,18.77,20.88a44.93,44.93,0,0,0-9.6-24.55c-4.13-5.12-11-10.29-17.53-6.37-5.55,3.39-6.57,10-6.7,15.85Z"/><path class="cls-3" d="M77.28,19.14a12.72,12.72,0,0,1,1.81,8.23,11.93,11.93,0,0,1-4.26,7.49c-7.61,6.4-18.26,7-27.74,5.61a46.68,46.68,0,0,0,26.39,4.08C80,43.58,88,40.29,87.82,32.77c-.18-6.45-5.52-10.62-10.54-13.63Z"/><path class="cls-3" d="M76.13,33.61a11.76,11.76,0,0,1-1.3,1.25c-7.61,6.4-18.26,7-27.74,5.61a46.68,46.68,0,0,0,26.39,4.08,25,25,0,0,0,9.1-3.06,66.11,66.11,0,0,0-6.45-7.88Z"/><path class="cls-1" d="M69.2,36.47A12.61,12.61,0,0,1,57.82,30a16.85,16.85,0,0,1-1.58-9.88,33.6,33.6,0,0,0-6.67-1.63,32.39,32.39,0,0,0-1.48,3.9c-1.33,4.38-2,9.17.61,13.35a8.15,8.15,0,0,0,3.06,2.85,12.92,12.92,0,0,0,8.53,1.12,28,28,0,0,0,8.91-3.28Z"/><text class="cls-4" transform="translate(5.7 65.89)">განათლების მართვის<tspan x="-5.7" y="14.34">საინფორმაციო სისტემა</tspan></text></svg>